inDegrees=yes
name=ik_dynamic
DataType=double
version=3
OpenSimVersion=4.5
endheader
time	pelvis_tilt	pelvis_list	pelvis_rotation	pelvis_tx	pelvis_ty	pelvis_tz	hip_flexion_r	hip_adduction_r	hip_rotation_r	knee_angle_r	knee_angle_r_beta	ankle_angle_r	subtalar_angle_r	mtp_angle_r	hip_flexion_l	hip_adduction_l	hip_rotation_l	knee_angle_l	knee_angle_l_beta	ankle_angle_l	subtalar_angle_l	mtp_angle_l	lumbar_extension	lumbar_bending	lumbar_rotation	arm_flex_r	arm_add_r	arm_rot_r	elbow_flex_r	pro_sup_r	wrist_flex_r	wrist_dev_r	arm_flex_l	arm_add_l	arm_rot_l	elbow_flex_l	pro_sup_l	wrist_flex_l	wrist_dev_l
5.599999999999988	0.7415907226361228	-4.960160425514587	7.854378138821722	0	0.9399999999999999	0	0.5625697334305427	2.289946952496817	-3.837224952156367	5.901254034823534	0.1029963129042708	-4.838939990468536	0	0	16.61271850289716	-4.415282007377363	-1.164108338660725	22.26767316081097	0.3886442134141242	-4.838939990468536	0	0	0	0	0	0	-5.450329223446579	0	66.31210613823133	47.02952021292252	0	0	0	-5.450329223446579	0	66.31210613823133	47.02952021292252	0	0
5.649999999999988	-0.5953015482136135	-4.168397345721957	9.90387365694875	0	0.9399999999999999	0	1.946156649234114	3.260854538580436	-7.402675116734605	6.145056507920676	0.1072514687843208	-4.840062008371034	0	0	16.95350825005212	-2.232135021862578	1.299923900787871	20.39530261906577	0.3559651826433204	-4.840062008371034	0	0	0	0	0	0	-5.457946175722718	0	66.32569662876928	47.02088825772007	0	0	0	-5.457946175722718	0	66.32569662876928	47.02088825772007	0	0
5.699999999999988	-2.106303646095826	-4.242877617206069	12.50319002632096	0	0.9399999999999999	0	3.812127101580989	4.498615182271361	-11.23761291322331	6.156829801029714	0.1074569515128759	-4.841275006235012	0	0	17.05641479544015	-0.5619251910023658	4.608241259263638	18.27423766793321	0.3189456155974047	-4.841275006235012	0	0	0	0	0	0	-5.466241659557308	0	66.34047973259069	47.01152888947016	0	0	0	-5.466241659557308	0	66.34047973259069	47.01152888947016	0	0
5.749999999999988	-3.994504598861758	-4.426443735598761	16.25266062097378	0	0.9399999999999999	0	6.391222787535107	4.574908638446536	-15.87192188108718	5.093407002499587	0.08889672233775285	-4.842890798713089	0	0	18.23262925706438	0.05878655593097959	9.112858567656682	16.364639908038	0.2856168472985252	-4.842890798713089	0	0	0	0	0	0	-5.477434784673088	0	66.3603835892112	46.99899938542026	0	0	0	-5.477434784673088	0	66.3603835892112	46.99899938542026	0	0
5.799999999999987	-6.356996607847798	-3.671699844240629	21.5346182321841	0	0.9399999999999999	0	9.373903954212226	2.595380012421592	-20.56926129983613	2.804774016534468	0.04895254136291235	-4.847164327807395	0	0	19.57618626344871	1.432897002731282	15.14084805270419	14.32562014237044	0.2500292388743831	-4.847164327807395	0	0	0	0	0	0	-5.523555386542021	0	66.43267643762314	46.96194817361001	0	0	0	-5.523555386542021	0	66.43267643762314	46.96194817361001	0	0
5.849999999999987	-10.22051520136525	-1.667381562084241	27.19513710523919	0	0.9399999999999999	0	13.69289835800676	-1.254642237830327	-24.29313603885036	0.3308992470905968	0.005775281354101181	-4.851919528730077	0	0	21.14029131996905	5.436322329108136	20.79611088023272	12.06167095384873	0.2105158714368253	-4.851919528730077	0	0	0	0	0	0	-5.578038618834155	0	66.51688308093239	46.91997887186347	0	0	0	-5.578038618834155	0	66.51688308093239	46.91997887186347	0	0
5.899999999999987	-12.75679259838827	-0.4799388763552243	31.09352706260215	0	0.9399999999999999	0	18.02070240179302	-3.284566614853007	-25.78191009205338	0.09544317939377504	0.00166579772899298	-4.855090669089136	0	0	19.19671589329291	8.562075068006038	25.47949321374828	8.527983115421721	0.1488413839185926	-4.855090669089136	0	0	0	0	0	0	-5.615846423649709	0	66.57497928097975	46.89153922955155	0	0	0	-5.615846423649709	0	66.57497928097975	46.89153922955155	0	0
5.949999999999987	-11.80949351823	-2.663953390924803	32.98205664128205	0	0.9399999999999999	0	19.51067916985351	-2.407245245689281	-27.20744403466169	0.05949889609135976	0.001038451638096213	-4.856078145093165	0	0	17.16368725590705	5.754647844744918	29.48840451251166	5.827252291983928	0.1017047388395055	-4.856078145093165	0	0	0	0	0	0	-5.621514715592909	0	66.58673999707501	46.88356788096857	0	0	0	-5.621514715592909	0	66.58673999707501	46.88356788096857	0	0
5.999999999999987	-10.95669645260476	-1.37617833536954	29.35790809375703	0	0.9399999999999999	0	18.0482273619315	-4.852399948656133	-23.15687255909378	0.04238223263645985	0.0007397095038524212	-4.859887185746727	0	0	14.21766160676913	4.562035195913697	27.47576526422938	3.322022373026151	0.0579802282342216	-4.859887185746727	0	0	0	0	0	0	-5.666785632770736	0	66.65689213777991	46.84912672919133	0	0	0	-5.666785632770736	0	66.65689213777991	46.84912672919133	0	0
6.049999999999986	-8.010742476130609	-1.373945476331869	22.82344854532653	0	0.9399999999999999	0	15.39997034478119	-5.156153298292713	-16.79322763163526	0.0332973948264137	0.0005811491720574447	-4.86539238008216	0	0	9.97840075597356	2.47632810636479	22.62201158282945	1.505054236584814	0.02626815184949471	-4.86539238008216	0	0	0	0	0	0	-5.734005337536369	0	66.76011423517846	46.79910176704538	0	0	0	-5.734005337536369	0	66.76011423517846	46.79910176704538	0	0
6.099999999999986	-3.764948657548667	-2.323138820796305	13.80291418489835	0	0.9399999999999999	0	12.11342032312115	-3.031173008173126	-8.470017689809549	0.02867159464520904	0.0005004137283560732	-4.87420492457263	0	0	4.99255873085838	-0.06987084627833494	14.74695313990159	0.598257139195645	0.01044155685252603	-4.87420492457263	0	0	0	0	0	0	-5.841858370112011	0	66.92640329183452	46.71852450168021	0	0	0	-5.841858370112011	0	66.92640329183452	46.71852450168021	0	0
6.149999999999986	0.2475128133983054	-3.029024366978914	3.403943992851371	0	0.9399999999999999	0	8.503017968951378	-0.6934612030475668	1.226455947408797	0.02691435293438633	0.0004697440747488389	-4.877870754939075	0	0	-0.1279626359853598	-1.347691302663007	4.845264662743972	0.2188643354252406	0.003819903268359713	-4.877870754939075	0	0	0	0	0	0	-5.872576987055146	0	66.97944674534196	46.68786063612208	0	0	0	-5.872576987055146	0	66.97944674534196	46.68786063612208	0	0
6.199999999999986	3.509019835106717	-3.012596843622894	-7.08931975291874	0	0.9399999999999999	0	4.902849477116813	0.1952489734055766	11.01684747691761	0.02661632136283794	0.0004645424425504262	-4.881135405004225	0	0	-4.333979130082772	-1.150467815389002	-5.299777447865122	0.1166414411391443	0.002035777192149233	-4.881135405004225	0	0	0	0	0	0	-5.900820018903989	0	67.02800726273064	46.66017475877724	0	0	0	-5.900820018903989	0	67.02800726273064	46.66017475877724	0	0
6.249999999999986	6.703582482146207	0.7971584583651337	-17.18860854540171	0	0.9399999999999999	0	1.917138429585221	-3.661625469052929	20.65520905358633	0.02916853634565847	0.0005090869972193751	-4.883766865239432	0	0	-6.99948418561616	4.15352666145014	-14.60237998535933	0.06673819997558127	0.001164801326428292	-4.883766865239432	0	0	0	0	0	0	-5.924156384365626	0	67.06798579465055	46.63762843559738	0	0	0	-5.924156384365626	0	67.06798579465055	46.63762843559738	0	0
6.299999999999986	8.693130600385635	1.988590161992443	-22.54600874097204	0	0.9399999999999999	0	-0.053329749485953	-5.908532305906357	24.40135257066868	0.03049611633442751	0.0005322576391069842	-4.887393402200367	0	0	-8.553681165804155	6.671062297135703	-19.30883513674985	0.04654591222182211	0.000812379421615065	-4.887393402200367	0	0	0	0	0	0	-5.970800654087793	0	67.14002053463689	46.60340940663173	0	0	0	-5.970800654087793	0	67.14002053463689	46.60340940663173	0	0
6.349999999999985	8.055846308853484	0.3805714143289537	-20.19345876324852	0	0.9399999999999999	0	-0.1797325368442567	-4.997277846376444	20.79294198073485	0.02657007328828133	0.0004637352613767056	-4.893972048156388	0	0	-9.258099747126225	4.459752256243917	-17.09698884958167	0.03530508237015421	0.0006161899300469944	-4.893972048156388	0	0	0	0	0	0	-6.050120488740143	0	67.26697834058352	46.54125450479482	0	0	0	-6.050120488740143	0	67.26697834058352	46.54125450479482	0	0
6.399999999999985	6.162310894415252	-4.507373731991677	-16.1656108520114	0	0.9399999999999999	0	-1.323424408827258	-1.623775807395501	14.32279627255592	0.02698073465817729	0.0004709026543921405	-4.898131450586645	0	0	-9.438551304548517	-0.9394453068575965	-13.67402892402586	0.02874683526878191	0.0005017269249686735	-4.898131450586645	0	0	0	0	0	0	-6.113350302033841	0	67.3612061394427	46.4998178485208	0	0	0	-6.113350302033841	0	67.3612061394427	46.4998178485208	0	0
6.449999999999985	5.406031474157743	-6.971318857224353	-12.3907286635028	0	0.9399999999999999	0	-2.511726334389528	-0.8213972463034179	7.060200298929997	0.0251466846852548	0.0004388924437185302	-4.900515590102926	0	0	-9.185332572861043	-4.211717437618929	-9.882175544005737	0.02555126875228806	0.0004459537677893701	-4.900515590102926	0	0	0	0	0	0	-6.147611584075965	0	67.41329636928211	46.47627733684352	0	0	0	-6.147611584075965	0	67.41329636928211	46.47627733684352	0	0
6.499999999999985	5.422500770861253	-6.010555699245444	-9.46635645506753	0	0.9399999999999999	0	-5.726473703256239	-2.832616254032135	-0.2897983741462761	0.02801540831267656	0.0004889611163467949	-4.901843600706385	0	0	-8.89292260792342	-3.366700475809935	-7.406993200478722	0.02649601221007983	0.0004624426517145125	-4.901843600706385	0	0	0	0	0	0	-6.165792660613108	0	67.44160006890262	46.4631785876466	0	0	0	-6.165792660613108	0	67.44160006890262	46.4631785876466	0	0
6.549999999999985	5.27967297168078	-6.55628792317605	-7.401344799039418	0	0.9399999999999999	0	-8.915958787585762	-2.84236102584117	-5.600844120713462	0.02938704678057033	0.0005129007237585518	-4.903155496833678	0	0	-8.18607257588501	-3.937658782107083	-6.403019318403	0.03597233247509605	0.0006278356413125071	-4.903155496833678	0	0	0	0	0	0	-6.184454902560966	0	67.47055267574706	46.45001335891335	0	0	0	-6.184454902560966	0	67.47055267574706	46.45001335891335	0	0
6.599999999999985	5.08935011906024	-6.413894672147713	-5.747619174220711	0	0.9399999999999999	0	-9.393808028733075	-1.333278335178211	-9.271710130741461	0.04713620676701816	0.0008226820049852986	-4.90493266161667	0	0	-6.091463463619431	-3.819682237035736	-6.506231891547191	0.1148307639497576	0.002004174913503679	-4.90493266161667	0	0	0	0	0	0	-6.211589796735735	0	67.51201840058894	46.43177292641879	0	0	0	-6.211589796735735	0	67.51201840058894	46.43177292641879	0	0
6.649999999999984	4.741259285018758	-5.786619052139629	-3.965040113391078	0	0.9399999999999999	0	-8.648841057959691	1.253939858469668	-10.45292485015181	0.1868532469901992	0.00326120437802116	-4.908781719824194	0	0	-0.9218737572844293	-3.096840445910917	-6.937867917450001	3.928669530286959	0.06856821852628651	-4.908781719824194	0	0	0	0	0	0	-6.284150836067242	0	67.61572293875797	46.39048194141098	0	0	0	-6.284150836067242	0	67.61572293875797	46.39048194141098	0	0
6.699999999999984	4.163930627183425	-4.725004030440463	-1.928596443977864	0	0.9399999999999999	0	-6.409058866443323	2.307734916832374	-9.987306410338	2.02500398457728	0.03534298689687802	-4.912023808668638	0	0	5.142727019021236	-1.538862724070479	-7.05427368265561	9.426463996349588	0.164522833557003	-4.912023808668638	0	0	0	0	0	0	-6.345836616361784	0	67.70336920663122	46.35576998450573	0	0	0	-6.345836616361784	0	67.70336920663122	46.35576998450573	0	0
6.749999999999984	3.398454609749392	-3.95544462916585	0.2486043398402921	0	0.9399999999999999	0	-3.014106446176139	2.712509486984511	-8.230781569151366	4.350410525935772	0.0759289874909974	-4.91476933734852	0	0	10.64860177347278	-1.078816970671394	-6.533420959478401	14.19397817677636	0.2477316531409693	-4.91476933734852	0	0	0	0	0	0	-6.397186166338019	0	67.77673123667655	46.32647064780929	0	0	0	-6.397186166338019	0	67.77673123667655	46.32647064780929	0	0
6.799999999999984	2.638227953430417	-4.176363580326493	2.430887205737911	0	0.9399999999999999	0	0.259136321099708	2.709561138524178	-5.128187550916202	6.653274049436487	0.1161215382001627	-4.918642229859181	0	0	15.13365653910736	-2.206153850020129	-5.490016562017801	18.20410957195988	0.3177216494245154	-4.918642229859181	0	0	0	0	0	0	-6.473327124484438	0	67.88465942152344	46.28432163104472	0	0	0	-6.473327124484438	0	67.88465942152344	46.28432163104472	0	0
